<svg xmlns="http://www.w3.org/2000/svg" width="96" height="59" viewBox="0 0 96 59">
  <metadata><?xpacket begin="﻿" id="W5M0MpCehiHzreSzNTczkc9d"?>
<x:xmpmeta xmlns:x="adobe:ns:meta/" x:xmptk="Adobe XMP Core 5.6-c138 79.159824, 2016/09/14-01:09:01        ">
   <rdf:RDF xmlns:rdf="http://www.w3.org/1999/02/22-rdf-syntax-ns#">
      <rdf:Description rdf:about=""/>
   </rdf:RDF>
</x:xmpmeta>
                                                                                                    
                                                                                                    
                                                                                                    
                                                                                                    
                                                                                                    
                                                                                                    
                                                                                                    
                                                                                                    
                                                                                                    
                                                                                                    
                                                                                                    
                                                                                                    
                                                                                                    
                                                                                                    
                                                                                                    
                                                                                                    
                                                                                                    
                                                                                                    
                                                                                                    
                                                                                                    
                           
<?xpacket end="w"?></metadata>
<defs>
    <style>
      .cls-1 {
        fill-rule: evenodd;
      }
    </style>
  </defs>
  <path id="Forma_1" data-name="Forma 1" class="cls-1" d="M1236,970.085a8.458,8.458,0,1,0,8.44,8.457A8.44,8.44,0,0,0,1236,970.085Zm0,12.134a3.677,3.677,0,1,1,3.67-3.677A3.671,3.671,0,0,1,1236,982.219Zm44.48-12.134a8.458,8.458,0,1,0,8.43,8.457A8.448,8.448,0,0,0,1280.48,970.085Zm0,12.134a3.677,3.677,0,1,1,3.67-3.677A3.671,3.671,0,0,1,1280.48,982.219ZM1245.49,944.1a2.161,2.161,0,0,1-2.15,2.155h-29.65a2.161,2.161,0,0,1-2.15-2.155V942.8a2.16,2.16,0,0,1,2.15-2.154h29.65a2.16,2.16,0,0,1,2.15,2.154V944.1Zm51.52,12.615c-3.1-.806-4.87-1.313-6.08-3.665l-4.06-8.244a8.693,8.693,0,0,0-7.01-4.276h-5.56a0.712,0.712,0,0,1-.74-0.739v-6.915c0-2.681-1.52-4.874-4.73-4.874h-45.27c-4.61,0-6.79,2.193-6.79,4.874v4.334a1.247,1.247,0,0,0,1.24,1.288h25.33a4.31,4.31,0,0,1,4.3,4.309V944.1a4.31,4.31,0,0,1-4.3,4.31h-25.33a1.137,1.137,0,0,0-1.24,1.242v1.491c0,1.185,1.62,1.184,1.62,1.184h17.05a4.3,4.3,0,0,1,4.29,4.309v1.293a4.3,4.3,0,0,1-4.29,4.309h-16.79s-1.88-.035-1.88,1.474v10.47a4.877,4.877,0,0,0,4.86,4.874h2.68c0.61,0,.7-0.339.7-0.511a10.99,10.99,0,1,1,21.98,0,0.391,0.391,0,0,0,.42.511h21.66a0.415,0.415,0,0,0,.42-0.511,10.99,10.99,0,1,1,21.98,0c0,0.172,0,.511.26,0.511h5.47a4.822,4.822,0,0,0,4.8-4.816v-9.15C1302,957.382,1299.57,957.382,1297.01,956.712Zm-9.14-.428H1274.2a0.636,0.636,0,0,1-.64-0.551v-11.42s-0.04-.439.69-0.439h3.9a7.732,7.732,0,0,1,6.24,3.8l3.61,7.337a5.955,5.955,0,0,0,.49.792C1288.62,955.981,1288.4,956.284,1287.87,956.284Zm-50.28,1.642a2.161,2.161,0,0,1-2.15,2.155h-27.29a2.161,2.161,0,0,1-2.15-2.155v-1.293a2.16,2.16,0,0,1,2.15-2.154h27.29a2.16,2.16,0,0,1,2.15,2.154v1.293Z" transform="translate(-1206 -928)"/>
</svg>
