<svg xmlns="http://www.w3.org/2000/svg" xmlns:xlink="http://www.w3.org/1999/xlink" width="26" height="26" viewBox="0 0 26 26">
  <metadata><?xpacket begin="﻿" id="W5M0MpCehiHzreSzNTczkc9d"?>
<x:xmpmeta xmlns:x="adobe:ns:meta/" x:xmptk="Adobe XMP Core 5.6-c138 79.159824, 2016/09/14-01:09:01        ">
   <rdf:RDF xmlns:rdf="http://www.w3.org/1999/02/22-rdf-syntax-ns#">
      <rdf:Description rdf:about=""/>
   </rdf:RDF>
</x:xmpmeta>
                                                                                                    
                                                                                                    
                                                                                                    
                                                                                                    
                                                                                                    
                                                                                                    
                                                                                                    
                                                                                                    
                                                                                                    
                                                                                                    
                                                                                                    
                                                                                                    
                                                                                                    
                                                                                                    
                                                                                                    
                                                                                                    
                                                                                                    
                                                                                                    
                                                                                                    
                                                                                                    
                           
<?xpacket end="w"?></metadata>
<defs>
    <style>
      .cls-1 {
        fill-rule: evenodd;
        filter: url(#filter);
      }
    </style>
    <filter id="filter" x="375" y="4045" width="26" height="26" filterUnits="userSpaceOnUse">
      <feFlood result="flood" flood-color="#f27551"/>
      <feComposite result="composite" operator="in" in2="SourceGraphic"/>
      <feBlend result="blend" in2="SourceGraphic"/>
    </filter>
  </defs>
  <path id="Forma_1" data-name="Forma 1" class="cls-1" d="M390.626,4068.76c-0.215.05-.433,0.1-0.65,0.14a1.06,1.06,0,0,0-.838,1.23,1.078,1.078,0,0,0,.426.67,1.04,1.04,0,0,0,.792.17c0.259-.05.519-0.1,0.775-0.17A1.051,1.051,0,0,0,390.626,4068.76Zm7.729-14.11a1.044,1.044,0,0,0,1.321.67,1.057,1.057,0,0,0,.663-1.33c-0.082-.26-0.174-0.51-0.272-0.75a1.04,1.04,0,0,0-1.358-.59,1.054,1.054,0,0,0-.582,1.37C398.209,4054.22,398.285,4054.44,398.355,4054.65Zm-4.333,12.61c-0.184.12-.375,0.24-0.566,0.35a1.056,1.056,0,0,0-.383,1.44,1.044,1.044,0,0,0,1.427.38c0.228-.13.455-0.27,0.674-0.42a1.058,1.058,0,0,0,.3-1.46A1.043,1.043,0,0,0,394.022,4067.26Zm6.967-9.67a1.045,1.045,0,1,0-2.089.08c0.009,0.22.011,0.45,0.006,0.67a1.045,1.045,0,0,0,.444.88,1.034,1.034,0,0,0,1.646-.83C401,4058.12,401,4057.85,400.989,4057.59Zm-2.8,6.9a1.035,1.035,0,0,0-1.463.21c-0.133.18-.273,0.35-0.416,0.52a1.053,1.053,0,0,0,.119,1.48,0.193,0.193,0,0,0,.076.06,1.047,1.047,0,0,0,1.4-.17c0.171-.21.337-0.42,0.5-0.63A1.054,1.054,0,0,0,398.184,4064.49Zm1.537-3.81a1.051,1.051,0,0,0-1.31.69c-0.066.21-.14,0.43-0.219,0.63a1.065,1.065,0,0,0,.374,1.24,0.938,0.938,0,0,0,.231.12,1.036,1.036,0,0,0,1.349-.61c0.093-.24.18-0.5,0.259-0.75A1.055,1.055,0,0,0,399.721,4060.68Zm-13.655,8.23a10.833,10.833,0,0,1-2.681-.86c-0.01,0-.019-0.01-0.03-0.01-0.2-.1-0.4-0.2-0.594-0.31h0a11.405,11.405,0,0,1-1.04-.65,11.053,11.053,0,0,1-2.635-15.31,10.826,10.826,0,0,1,2.681-2.69,0.068,0.068,0,0,1,.037-0.02,10.841,10.841,0,0,1,12.245-.1l-0.817,1.19c-0.227.33-.087,0.57,0.31,0.53l3.547-.32a0.589,0.589,0,0,0,.529-0.77l-0.952-3.46c-0.107-.38-0.38-0.43-0.607-0.1l-0.819,1.19a12.86,12.86,0,0,0-9.458-2.02c-0.335.05-.664,0.13-0.99,0.21h-0.006c-0.013,0-.026.01-0.038,0.01a12.841,12.841,0,0,0-7.146,4.83,0.2,0.2,0,0,0-.045.05c-0.059.08-.118,0.16-0.176,0.25-0.094.13-.187,0.27-0.276,0.41a0.165,0.165,0,0,0-.029.05,13.028,13.028,0,0,0-2.06,7.65c0,0.01,0,.02,0,0.03,0.012,0.26.033,0.53,0.061,0.8,0,0.01,0,.03.008,0.05,0.029,0.26.066,0.53,0.112,0.79a13.041,13.041,0,0,0,3.637,7.05s0.009,0.01.013,0.01a0.047,0.047,0,0,1,0,.01,14.416,14.416,0,0,0,1.665,1.4,12.871,12.871,0,0,0,5.183,2.18A1.051,1.051,0,0,0,386.066,4068.91Zm1.292-19.32a0.848,0.848,0,0,0-.846.85v8.49l7.7,4.01a0.905,0.905,0,0,0,.388.1,0.855,0.855,0,0,0,.389-1.61l-6.791-3.54v-7.45A0.847,0.847,0,0,0,387.358,4049.59Z" transform="translate(-375 -4045)"/>
</svg>
