<svg xmlns="http://www.w3.org/2000/svg" xmlns:xlink="http://www.w3.org/1999/xlink" width="26" height="26" viewBox="0 0 26 26">
  <metadata><?xpacket begin="﻿" id="W5M0MpCehiHzreSzNTczkc9d"?>
<x:xmpmeta xmlns:x="adobe:ns:meta/" x:xmptk="Adobe XMP Core 5.6-c138 79.159824, 2016/09/14-01:09:01        ">
   <rdf:RDF xmlns:rdf="http://www.w3.org/1999/02/22-rdf-syntax-ns#">
      <rdf:Description rdf:about=""/>
   </rdf:RDF>
</x:xmpmeta>
                                                                                                    
                                                                                                    
                                                                                                    
                                                                                                    
                                                                                                    
                                                                                                    
                                                                                                    
                                                                                                    
                                                                                                    
                                                                                                    
                                                                                                    
                                                                                                    
                                                                                                    
                                                                                                    
                                                                                                    
                                                                                                    
                                                                                                    
                                                                                                    
                                                                                                    
                                                                                                    
                           
<?xpacket end="w"?></metadata>
<defs>
    <style>
      .cls-1 {
        fill-rule: evenodd;
        filter: url(#filter);
      }
    </style>
    <filter id="filter" x="859" y="54" width="26" height="26" filterUnits="userSpaceOnUse">
      <feFlood result="flood" flood-color="#f27551"/>
      <feComposite result="composite" operator="in" in2="SourceGraphic"/>
      <feBlend result="blend" in2="SourceGraphic"/>
    </filter>
  </defs>
  <path id="Forma_1" data-name="Forma 1" class="cls-1" d="M884.413,74.573L880.4,70.547a2.09,2.09,0,0,0-2.951.056l-2.022,2.028-0.4-.223a18.978,18.978,0,0,1-8.389-8.414c-0.075-.136-0.147-0.267-0.217-0.391l1.357-1.359,0.667-.67a2.1,2.1,0,0,0,.054-2.959l-4.014-4.026a2.087,2.087,0,0,0-2.951.056L860.4,55.785l0.032,0.031a6.513,6.513,0,0,0-.932,1.649,6.833,6.833,0,0,0-.416,1.672c-0.529,4.406,1.478,8.433,6.928,13.9,7.532,7.553,13.6,6.983,13.865,6.955a6.761,6.761,0,0,0,1.672-.421,6.52,6.52,0,0,0,1.639-.931l0.024,0.022,1.146-1.126A2.1,2.1,0,0,0,884.413,74.573Z" transform="translate(-859 -54)"/>
</svg>
