<svg xmlns="http://www.w3.org/2000/svg" width="82" height="55" viewBox="0 0 82 55">
  <metadata><?xpacket begin="﻿" id="W5M0MpCehiHzreSzNTczkc9d"?>
<x:xmpmeta xmlns:x="adobe:ns:meta/" x:xmptk="Adobe XMP Core 5.6-c138 79.159824, 2016/09/14-01:09:01        ">
   <rdf:RDF xmlns:rdf="http://www.w3.org/1999/02/22-rdf-syntax-ns#">
      <rdf:Description rdf:about=""/>
   </rdf:RDF>
</x:xmpmeta>
                                                                                                    
                                                                                                    
                                                                                                    
                                                                                                    
                                                                                                    
                                                                                                    
                                                                                                    
                                                                                                    
                                                                                                    
                                                                                                    
                                                                                                    
                                                                                                    
                                                                                                    
                                                                                                    
                                                                                                    
                                                                                                    
                                                                                                    
                                                                                                    
                                                                                                    
                                                                                                    
                           
<?xpacket end="w"?></metadata>
<defs>
    <style>
      .cls-1 {
        fill-rule: evenodd;
      }
    </style>
  </defs>
  <path id="Forma_1" data-name="Forma 1" class="cls-1" d="M734.241,1104.13v-24.81a3.567,3.567,0,0,0-.151-1.02c0.164-.03.328-0.06,0.5-0.08-2.073-11.51-11.8-20.22-23.5-20.22-13.209,0-23.916,11.1-23.916,24.8v17.98H654.611v-4a0.8,0.8,0,0,0-1.608,0v15.4a0.8,0.8,0,0,0,.6.77v0.03h41.188c0.138,0.01.273,0.02,0.413,0.02h31.752a8.019,8.019,0,0,0,8.04-8v-0.8A3.832,3.832,0,0,1,734.241,1104.13Zm-79.028,7.25v-9h2.813v4.42h0.537v-4.42h1v2.54h0.515v-2.54H661.3v2.54h0.514v-2.54h1.306v2.54h0.513v-2.54h1.222v2.54h0.515v-2.54h0.967v4.42h0.536v-4.42h1.156v2.54h0.515v-2.54h1.221v2.54h0.514v-2.54h1.305v2.54h0.514v-2.54h1.222v2.54h0.514v-2.54h1.211v4.42h0.536v-4.42h1v2.54h0.514v-2.54h1.222v2.54h0.514v-2.54h1.306v2.54h0.514v-2.54h1.222v2.54h0.514v-2.54h0.965v4.42h0.536v-4.42h3.283V1105a7.966,7.966,0,0,0,3.2,6.38H655.213Zm55.267-38.98a10,10,0,1,1-10.049,10A10.025,10.025,0,0,1,710.48,1072.4Zm-14.269,33.34h-1.138v-3.36h1.138v3.36Zm29.14,0H697.819v-4.54h27.532v4.54Zm-6.953-42.27,1.178-2.55c0.368,0.17,9.038,4.22,11.339,11.67l-2.689.82C726.3,1067.17,718.477,1063.51,718.4,1063.47Zm14.638,40.24c-2.1-1.06-3.81-3.77-4.671-7.31V1086c0.849-3.49,2.527-6.18,4.59-7.27a2.288,2.288,0,0,1,.081.59v24.39Zm-2.393-17.24c-1.131,0-1.741,2.37-1.741,4.6s0.61,4.6,1.741,4.6,1.741-2.37,1.741-4.6S731.775,1086.47,730.643,1086.47Zm0,8.8c-0.632,0-1.338-1.73-1.338-4.2s0.706-4.2,1.338-4.2,1.339,1.72,1.339,4.2S731.278,1095.27,730.643,1095.27Zm0.195-7.42a3.5,3.5,0,0,1,.641,1.97l-0.4.06a3.484,3.484,0,0,0-.521-1.74Zm-24.444-5.45a4.086,4.086,0,1,1,4.086,4.07A4.076,4.076,0,0,1,706.394,1082.4Z" transform="translate(-653 -1058)"/>
</svg>
