<svg xmlns="http://www.w3.org/2000/svg" width="79" height="64" viewBox="0 0 79 64">
  <metadata><?xpacket begin="﻿" id="W5M0MpCehiHzreSzNTczkc9d"?>
<x:xmpmeta xmlns:x="adobe:ns:meta/" x:xmptk="Adobe XMP Core 5.6-c138 79.159824, 2016/09/14-01:09:01        ">
   <rdf:RDF xmlns:rdf="http://www.w3.org/1999/02/22-rdf-syntax-ns#">
      <rdf:Description rdf:about=""/>
   </rdf:RDF>
</x:xmpmeta>
                                                                                                    
                                                                                                    
                                                                                                    
                                                                                                    
                                                                                                    
                                                                                                    
                                                                                                    
                                                                                                    
                                                                                                    
                                                                                                    
                                                                                                    
                                                                                                    
                                                                                                    
                                                                                                    
                                                                                                    
                                                                                                    
                                                                                                    
                                                                                                    
                                                                                                    
                                                                                                    
                           
<?xpacket end="w"?></metadata>
<defs>
    <style>
      .cls-1 {
        fill-rule: evenodd;
      }
    </style>
  </defs>
  <path id="Forma_1" data-name="Forma 1" class="cls-1" d="M906.661,950.266l9.283-11.887c2.493-3.193,2.43-7.422-.751-9.925s-7.287-1.555-9.781,1.638l-9.389,12.023a0.306,0.306,0,0,0,.01.421L905.9,950.3C906.191,950.53,906.355,950.658,906.661,950.266Zm-11.595-4.831a0.207,0.207,0,0,0-.341.053c-1.023,1.455-7.157,10.166-9.471,13.128-1.455,1.864-1.524,5.3-.99,7.251a0.24,0.24,0,0,1-.015.281c-0.284.364-.448,0.619-0.612,0.83a1.092,1.092,0,0,0,.213,1.557,1.142,1.142,0,0,0,1.61-.123c0.165-.211.374-0.432,0.659-0.8a0.24,0.24,0,0,1,.235-0.084c2.008,0.064,5.347-.82,6.809-2.692,2.334-2.988,9.351-11.1,10.42-12.338a0.22,0.22,0,0,0-.016-0.376Zm18.162,5.327a1.331,1.331,0,0,1-1.873.228h0a1.342,1.342,0,0,1-.227-1.881l6.49-8.311a1.331,1.331,0,0,1,1.874-.228h0a1.343,1.343,0,0,1,.227,1.881Zm-27.754-.611a1.024,1.024,0,0,1-1.019,1.024H850.049a1.025,1.025,0,0,1-1.02-1.024v-1.066a1.025,1.025,0,0,1,1.02-1.024h34.406a1.024,1.024,0,0,1,1.019,1.024v1.066h0Zm0,21.891a1.024,1.024,0,0,1-1.02,1.023H871.085a1.024,1.024,0,0,1-1.02-1.023v-0.875a1.025,1.025,0,0,1,1.02-1.023h13.369a1.025,1.025,0,0,1,1.02,1.023v0.875Zm0-31.341a1.024,1.024,0,0,1-1.019,1.024H850.049a1.025,1.025,0,0,1-1.02-1.024v-1.067a1.024,1.024,0,0,1,1.02-1.023h34.406a1.023,1.023,0,0,1,1.019,1.023V940.7h0Zm4.279,31.277v10.7a3.559,3.559,0,0,1-3.542,3.555H848.292a3.559,3.559,0,0,1-3.542-3.555V933.322a3.559,3.559,0,0,1,3.542-3.556h37.919a3.559,3.559,0,0,1,3.542,3.556v11.37c0,1.088.535,0.545,0.783,0.221,0.632-.828,1.826-2.2,2.307-2.717a2.135,2.135,0,0,0,.66-1.62V929.557A3.559,3.559,0,0,0,889.961,926H844.542A3.559,3.559,0,0,0,841,929.557v56.887A3.559,3.559,0,0,0,844.542,990h45.42a3.559,3.559,0,0,0,3.542-3.556V970.492c0-.928-0.539-0.783-0.81-0.65a13.994,13.994,0,0,1-2.165.838C890.259,970.761,889.753,970.877,889.753,971.978Z" transform="translate(-841 -926)"/>
</svg>
