<svg xmlns="http://www.w3.org/2000/svg" width="56.625" height="56.469" viewBox="0 0 56.625 56.469">
  <metadata><?xpacket begin="﻿" id="W5M0MpCehiHzreSzNTczkc9d"?>
<x:xmpmeta xmlns:x="adobe:ns:meta/" x:xmptk="Adobe XMP Core 5.6-c138 79.159824, 2016/09/14-01:09:01        ">
   <rdf:RDF xmlns:rdf="http://www.w3.org/1999/02/22-rdf-syntax-ns#">
      <rdf:Description rdf:about=""/>
   </rdf:RDF>
</x:xmpmeta>
                                                                                                    
                                                                                                    
                                                                                                    
                                                                                                    
                                                                                                    
                                                                                                    
                                                                                                    
                                                                                                    
                                                                                                    
                                                                                                    
                                                                                                    
                                                                                                    
                                                                                                    
                                                                                                    
                                                                                                    
                                                                                                    
                                                                                                    
                                                                                                    
                                                                                                    
                                                                                                    
                           
<?xpacket end="w"?></metadata>
<defs>
    <style>
      .cls-1 {
        fill-rule: evenodd;
      }
    </style>
  </defs>
  <path id="Forma_1" data-name="Forma 1" class="cls-1" d="M534.534,973.933l-8.742-8.744a4.559,4.559,0,0,0-6.427.121l-4.4,4.4-0.869-.484a41.273,41.273,0,0,1-18.271-18.275c-0.164-.294-0.32-0.579-0.474-0.849l2.956-2.951,1.453-1.456a4.553,4.553,0,0,0,.117-6.427l-8.742-8.744a4.554,4.554,0,0,0-6.427.121l-2.464,2.478,0.068,0.067a14.227,14.227,0,0,0-2.03,3.581,14.84,14.84,0,0,0-.9,3.632c-1.154,9.57,3.219,18.317,15.087,30.185,16.4,16.4,29.626,15.165,30.2,15.105a14.787,14.787,0,0,0,3.643-.916,14.2,14.2,0,0,0,3.568-2.021l0.054,0.048,2.5-2.444A4.561,4.561,0,0,0,534.534,973.933Z" transform="translate(-479.188 -929.25)"/>
</svg>
