<svg xmlns="http://www.w3.org/2000/svg" xmlns:xlink="http://www.w3.org/1999/xlink" width="18" height="26" viewBox="0 0 18 26">
  <metadata><?xpacket begin="﻿" id="W5M0MpCehiHzreSzNTczkc9d"?>
<x:xmpmeta xmlns:x="adobe:ns:meta/" x:xmptk="Adobe XMP Core 5.6-c138 79.159824, 2016/09/14-01:09:01        ">
   <rdf:RDF xmlns:rdf="http://www.w3.org/1999/02/22-rdf-syntax-ns#">
      <rdf:Description rdf:about=""/>
   </rdf:RDF>
</x:xmpmeta>
                                                                                                    
                                                                                                    
                                                                                                    
                                                                                                    
                                                                                                    
                                                                                                    
                                                                                                    
                                                                                                    
                                                                                                    
                                                                                                    
                                                                                                    
                                                                                                    
                                                                                                    
                                                                                                    
                                                                                                    
                                                                                                    
                                                                                                    
                                                                                                    
                                                                                                    
                                                                                                    
                           
<?xpacket end="w"?></metadata>
<defs>
    <style>
      .cls-1 {
        fill-rule: evenodd;
        filter: url(#filter);
      }
    </style>
    <filter id="filter" x="378" y="3883" width="18" height="26" filterUnits="userSpaceOnUse">
      <feFlood result="flood" flood-color="#f27551"/>
      <feComposite result="composite" operator="in" in2="SourceGraphic"/>
      <feBlend result="blend" in2="SourceGraphic"/>
    </filter>
  </defs>
  <path id="Forma_1" data-name="Forma 1" class="cls-1" d="M395.575,3889.47a7.668,7.668,0,0,0-.422-1.04A8.961,8.961,0,0,0,378,3891.07v1.1c0,0.05.016,0.47,0.039,0.68,0.325,2.58,2.378,5.33,3.91,7.92,1.65,2.78,3.361,5.5,5.056,8.23,1.045-1.78,2.087-3.58,3.109-5.32,0.278-.5.6-1.01,0.88-1.5,0.186-.32.54-0.64,0.7-0.95,1.649-3,4.3-6.03,4.3-9.01V3891A9.057,9.057,0,0,0,395.575,3889.47Zm-8.624,5.57a3.2,3.2,0,0,1-3.059-2.17,3.032,3.032,0,0,1-.086-0.81v-0.72a3.023,3.023,0,0,1,3.245-2.96,3.282,3.282,0,0,1,3.3,3.33A3.367,3.367,0,0,1,386.951,3895.04Z" transform="translate(-378 -3883)"/>
</svg>
