<svg xmlns="http://www.w3.org/2000/svg" width="75.12" height="76" viewBox="0 0 75.12 76">
  <metadata><?xpacket begin="﻿" id="W5M0MpCehiHzreSzNTczkc9d"?>
<x:xmpmeta xmlns:x="adobe:ns:meta/" x:xmptk="Adobe XMP Core 5.6-c138 79.159824, 2016/09/14-01:09:01        ">
   <rdf:RDF xmlns:rdf="http://www.w3.org/1999/02/22-rdf-syntax-ns#">
      <rdf:Description rdf:about=""/>
   </rdf:RDF>
</x:xmpmeta>
                                                                                                    
                                                                                                    
                                                                                                    
                                                                                                    
                                                                                                    
                                                                                                    
                                                                                                    
                                                                                                    
                                                                                                    
                                                                                                    
                                                                                                    
                                                                                                    
                                                                                                    
                                                                                                    
                                                                                                    
                                                                                                    
                                                                                                    
                                                                                                    
                                                                                                    
                                                                                                    
                           
<?xpacket end="w"?></metadata>
<defs>
    <style>
      .cls-1 {
        fill-rule: evenodd;
      }
    </style>
  </defs>
  <path id="Forma_1" data-name="Forma 1" class="cls-1" d="M1403.96,1110.85a7.177,7.177,0,0,0,0,10.07,7,7,0,0,0,9.96,0l23.1-23.37-9.95-10.07Zm57.75-43.32,10.05-5.26,5.28-10.31-4.91-4.96-10.19,5.33-5.2,10.17-12.26,12.4,4.98,5.03Zm2.2,27.02-0.95-.1a13.771,13.771,0,0,0-4.86.93l-28.89-29.22a14.379,14.379,0,0,0,.91-4.93l-0.09-.96a14.1,14.1,0,0,0-13.98-13.27,13.8,13.8,0,0,0-6.04,1.42l9.35,9.46a4.663,4.663,0,0,1,1.06,1.71,4.781,4.781,0,0,1-1.06,5,4.533,4.533,0,0,1-4.94,1.07,4.665,4.665,0,0,1-1.69-1.07l-9.35-9.46a14.132,14.132,0,0,0,11.72,20.25l0.95,0.09a13.991,13.991,0,0,0,4.86-.92l28.89,29.22a14.322,14.322,0,0,0-.91,4.92l0.09,0.96a14.1,14.1,0,0,0,13.98,13.28,13.8,13.8,0,0,0,6.04-1.42l-9.36-9.46a4.882,4.882,0,0,1,0-6.71,4.65,4.65,0,0,1,3.32-1.39,4.548,4.548,0,0,1,1.63.32,4.616,4.616,0,0,1,1.69,1.07l9.35,9.46A14.132,14.132,0,0,0,1463.91,1094.55Z" transform="translate(-1401.91 -1047)"/>
</svg>
