<svg xmlns="http://www.w3.org/2000/svg" width="66" height="65" viewBox="0 0 66 65">
  <metadata><?xpacket begin="﻿" id="W5M0MpCehiHzreSzNTczkc9d"?>
<x:xmpmeta xmlns:x="adobe:ns:meta/" x:xmptk="Adobe XMP Core 5.6-c138 79.159824, 2016/09/14-01:09:01        ">
   <rdf:RDF xmlns:rdf="http://www.w3.org/1999/02/22-rdf-syntax-ns#">
      <rdf:Description rdf:about=""/>
   </rdf:RDF>
</x:xmpmeta>
                                                                                                    
                                                                                                    
                                                                                                    
                                                                                                    
                                                                                                    
                                                                                                    
                                                                                                    
                                                                                                    
                                                                                                    
                                                                                                    
                                                                                                    
                                                                                                    
                                                                                                    
                                                                                                    
                                                                                                    
                                                                                                    
                                                                                                    
                                                                                                    
                                                                                                    
                                                                                                    
                           
<?xpacket end="w"?></metadata>
<defs>
    <style>
      .cls-1 {
        fill-rule: evenodd;
      }
    </style>
  </defs>
  <path id="Forma_1" data-name="Forma 1" class="cls-1" d="M1096.35,1064.93v-9.92H1088a16.056,16.056,0,0,0,1.37,4.23A10.4,10.4,0,0,0,1096.35,1064.93Zm0,3.12a10.4,10.4,0,0,0-6.83,5.41,13.667,13.667,0,0,0-.67,1.47v9.14h-12.87a11.54,11.54,0,0,0-1.68,5.07h14.55v20.82h-20.61v-20.82h3.78a11.279,11.279,0,0,0-1.52-5.07h-2.26v-2.33a9.957,9.957,0,0,0-5.48-1.43,1.021,1.021,0,0,1-.64-0.23v3.99h-20.61v-20.82h20.61v15.05a1.068,1.068,0,0,1,.61-0.24,11.605,11.605,0,0,0,5.51-1.76v-13.05h11.98a10.766,10.766,0,0,0,5.19-8.24h-51.4V1118h62.34v-49.95h0Zm-34.23,41.91h-20.61v-20.82h20.61v20.82Zm0.64-30.77a11.2,11.2,0,0,1,5.48,1.27,8.676,8.676,0,0,1,3.54,3.61,12.287,12.287,0,0,1,1.35,5.07,5.1,5.1,0,0,1,.01.52c0.01-.07.02-0.26,0.04-0.52a13.4,13.4,0,0,1,1.52-5.07c1.37-2.49,3.95-4.87,8.83-4.88h-0.02c-10.23,0-10.37-10.49-10.37-10.49,0,4.91-2.4,7.51-4.9,8.9A13.438,13.438,0,0,1,1062.76,1079.19Zm33.59-13.1c-6.97-1.61-8.93-7.83-9.49-11.08a14.783,14.783,0,0,1-.21-2.01,18.255,18.255,0,0,1-.12,2.01,11.846,11.846,0,0,1-4.38,8.24,16.52,16.52,0,0,1-8.84,3.23c13.37,0.02,13.35,12.67,13.34,13.45a17,17,0,0,1,2.2-7.55,11.484,11.484,0,0,1,7.5-5.49,16.727,16.727,0,0,1,3.64-.41h-0.03A15.911,15.911,0,0,1,1096.35,1066.09Z" transform="translate(-1034 -1053)"/>
</svg>
